<?xml version="1.0" encoding="UTF-8"?>
<svg xmlns="http://www.w3.org/2000/svg" xmlns:xlink="http://www.w3.org/1999/xlink" width="553.67pt" height="195pt" viewBox="0 0 553.67 195" version="1.1">
<defs>
<clipPath id="clip1">
  <path d="M 531 81 L 553.671875 81 L 553.671875 112 L 531 112 Z M 531 81 "/>
</clipPath>
</defs>
<g id="surface1">
<path style=" stroke:none;fill-rule:nonzero;fill:rgb(37.298584%,12.89978%,22.698975%);fill-opacity:1;" d="M 159.714844 89.734375 C 163.082031 93.472656 165.546875 97.585938 167.117188 102.070313 C 168.761719 106.484375 169.582031 111.648438 169.585938 117.550781 C 169.585938 131.613281 163.191406 144.394531 156.019531 153.769531 C 156.019531 153.769531 170.355469 113.507813 126.0625 98.03125 C 121.203125 96.089844 115.632813 93.960938 109.351563 91.640625 C 103.070313 89.25 97.644531 87.007813 93.089844 84.910156 C 84.113281 80.871094 77.121094 75.597656 72.109375 69.09375 C 67.175781 62.511719 64.710938 53.953125 64.710938 43.40625 C 64.710938 37.347656 65.945313 31.707031 68.410156 26.46875 C 70.875 21.234375 74.390625 16.5625 78.953125 12.445313 C 83.289063 8.5625 88.410156 5.53125 94.320313 3.359375 C 100.226563 1.117188 106.394531 -0.00390625 112.828125 -0.00390625 C 120.15625 -0.00390625 126.695313 1.117188 132.457031 3.359375 C 138.292969 5.605469 143.601563 8.222656 148.382813 11.214844 L 154.113281 1.269531 L 161.859375 1.269531 L 161.859375 56.417969 L 153.769531 56.417969 C 152.125 50.359375 150.253906 44.566406 148.160156 39.03125 C 146.140625 33.5 143.484375 28.488281 140.199219 24 C 136.980469 19.664063 133.054688 16.226563 128.417969 13.679688 C 123.785156 11.066406 118.101563 9.757813 111.367188 9.753906 C 104.265625 9.753906 98.207031 12.035156 93.199219 16.597656 C 88.1875 21.160156 85.683594 26.730469 85.683594 33.3125 C 85.683594 40.191406 87.285156 45.914063 90.507813 50.472656 C 93.722656 54.960938 98.394531 58.660156 104.527344 61.578125 C 109.988281 64.195313 115.332031 66.480469 120.570313 68.421875 C 125.871094 70.289063 130.996094 72.3125 135.9375 74.476563 C 140.421875 76.421875 144.71875 78.628906 148.835938 81.09375 C 153.023438 83.5625 156.644531 86.445313 159.714844 89.734375 "/>
<path style=" stroke:none;fill-rule:nonzero;fill:rgb(54.499817%,58.799744%,60.398865%);fill-opacity:1;" d="M 136.332031 175.964844 C 141.246094 173.53125 147.890625 167.195313 148.980469 166.09375 L 148.980469 195 L 0 195 L 0 1.285156 L 53.300781 1.285156 C 48.453125 5.941406 44.667969 11.167969 41.9375 16.953125 C 38.949219 23.296875 37.457031 30.128906 37.457031 37.464844 C 37.457031 50.230469 40.445313 60.59375 46.417969 68.5625 C 52.484375 76.441406 60.949219 82.820313 71.8125 87.710938 C 77.335938 90.25 83.902344 92.964844 91.503906 95.859375 C 99.113281 98.667969 105.855469 101.246094 111.742188 103.597656 C 120.339844 107.039063 126.8125 112.113281 131.160156 118.808594 C 135.503906 125.421875 137.679688 132.574219 137.679688 140.265625 C 137.675781 145.519531 136.953125 150.179688 135.503906 154.253906 C 134.144531 158.238281 132.105469 161.808594 129.121094 164.707031 C 114.804688 178.652344 92.632813 178.515625 84.453125 175.332031 C 75.289063 171.777344 49.136719 162.113281 33.628906 110.234375 C 51.394531 156.9375 80.0625 178.722656 105.402344 171.347656 C 94.953125 171.101563 89.644531 171.140625 87.667969 166.082031 C 85.949219 161.703125 89.539063 159.027344 85.660156 158.195313 C 82.046875 157.410156 77.355469 161.777344 77.664063 156.28125 C 77.859375 152.820313 88.796875 144.378906 80.980469 138.261719 C 75.296875 133.816406 72.546875 143.199219 68.179688 139.457031 C 65.199219 136.902344 77.640625 108.246094 66.449219 107.65625 C 60.136719 107.328125 59.53125 118.304688 56.167969 115.898438 C 54.457031 114.675781 59.914063 98.382813 50.703125 95.964844 C 44.386719 94.308594 44.714844 105.464844 42.21875 104.207031 C 39.722656 102.945313 43.191406 93.546875 37.890625 92.1875 C 31.238281 90.484375 32.664063 100.269531 28.753906 100.519531 C 24.839844 100.777344 21.460938 93.113281 16.109375 102.117188 C 12.773438 107.726563 22.117188 115.210938 20.328125 117.5625 C 18.539063 119.910156 7.5 116.722656 8.246094 125.460938 C 8.867188 132.710938 20.449219 131.128906 20.628906 133.550781 C 20.816406 135.980469 11.414063 139.203125 12.457031 141.992188 C 16.390625 152.519531 37.976563 143.089844 41.996094 152.277344 C 44.410156 157.808594 32.882813 163.828125 41.128906 168.304688 C 45.65625 170.761719 50.519531 162.117188 58.15625 165.191406 C 65.175781 168.019531 55.292969 172.609375 59.871094 174.859375 C 65.074219 177.417969 74.546875 174.890625 77.785156 177.109375 C 87.535156 183.816406 118.839844 184.636719 136.332031 175.964844 "/>
<path style=" stroke:none;fill-rule:nonzero;fill:rgb(54.499817%,58.799744%,60.398865%);fill-opacity:1;" d="M 225.304688 23.644531 L 225.304688 41.652344 C 225.304688 48.464844 228.332031 51.355469 232.390625 51.355469 C 236.90625 51.355469 239.792969 48.378906 239.792969 41.652344 L 239.792969 23.644531 L 243.765625 23.644531 L 243.765625 41.378906 C 243.765625 50.726563 238.84375 54.5625 232.257813 54.5625 C 226.027344 54.5625 221.335938 50.996094 221.335938 41.5625 L 221.335938 23.644531 "/>
<path style=" stroke:none;fill-rule:nonzero;fill:rgb(54.499817%,58.799744%,60.398865%);fill-opacity:1;" d="M 256.320313 54.0625 L 256.320313 23.644531 L 260.609375 23.644531 L 270.355469 39.035156 C 272.609375 42.601563 274.371094 45.804688 275.820313 48.917969 L 275.90625 48.871094 C 275.546875 44.8125 275.453125 41.109375 275.453125 36.371094 L 275.453125 23.644531 L 279.15625 23.644531 L 279.15625 54.0625 L 275.1875 54.0625 L 265.523438 38.628906 C 263.40625 35.242188 261.375 31.765625 259.839844 28.472656 L 259.707031 28.515625 C 259.933594 32.355469 260.023438 36.007813 260.023438 41.066406 L 260.023438 54.0625 "/>
<path style=" stroke:none;fill-rule:nonzero;fill:rgb(54.499817%,58.799744%,60.398865%);fill-opacity:1;" d="M 291.757813 54.0625 L 295.683594 54.0625 L 295.683594 23.644531 L 291.757813 23.644531 Z M 291.757813 54.0625 "/>
<path style=" stroke:none;fill-rule:nonzero;fill:rgb(54.499817%,58.799744%,60.398865%);fill-opacity:1;" d="M 314.960938 54.0625 L 305.027344 23.644531 L 309.269531 23.644531 L 314.015625 38.628906 C 315.320313 42.734375 316.445313 46.4375 317.261719 50.003906 L 317.351563 50.003906 C 318.207031 46.480469 319.472656 42.644531 320.824219 38.671875 L 325.972656 23.644531 L 330.171875 23.644531 L 319.289063 54.0625 "/>
<path style=" stroke:none;fill-rule:nonzero;fill:rgb(54.499817%,58.799744%,60.398865%);fill-opacity:1;" d="M 354.953125 39.800781 L 343.125 39.800781 L 343.125 50.769531 L 356.304688 50.769531 L 356.304688 54.0625 L 339.199219 54.0625 L 339.199219 23.644531 L 355.628906 23.644531 L 355.628906 26.9375 L 343.125 26.9375 L 343.125 36.554688 L 354.953125 36.554688 "/>
<path style=" stroke:none;fill-rule:nonzero;fill:rgb(54.499817%,58.799744%,60.398865%);fill-opacity:1;" d="M 371.070313 37.90625 L 375.089844 37.90625 C 379.285156 37.90625 381.949219 35.601563 381.949219 32.128906 C 381.949219 28.203125 379.105469 26.488281 374.953125 26.441406 C 373.054688 26.441406 371.703125 26.621094 371.070313 26.800781 Z M 367.144531 24.050781 C 369.128906 23.644531 371.972656 23.417969 374.683594 23.417969 C 378.878906 23.417969 381.585938 24.183594 383.484375 25.902344 C 385.015625 27.253906 385.878906 29.332031 385.878906 31.679688 C 385.878906 35.695313 383.347656 38.355469 380.140625 39.441406 L 380.140625 39.574219 C 382.492188 40.390625 383.890625 42.554688 384.609375 45.714844 C 385.601563 49.957031 386.324219 52.890625 386.960938 54.0625 L 382.894531 54.0625 C 382.398438 53.207031 381.722656 50.589844 380.867188 46.796875 C 379.964844 42.601563 378.339844 41.019531 374.769531 40.886719 L 371.070313 40.886719 L 371.070313 54.0625 L 367.144531 54.0625 "/>
<path style=" stroke:none;fill-rule:nonzero;fill:rgb(54.499817%,58.799744%,60.398865%);fill-opacity:1;" d="M 396.621094 49.28125 C 398.386719 50.363281 400.953125 51.265625 403.664063 51.265625 C 407.683594 51.265625 410.027344 49.144531 410.027344 46.074219 C 410.027344 43.234375 408.402344 41.605469 404.296875 40.027344 C 399.328125 38.269531 396.261719 35.695313 396.261719 31.40625 C 396.261719 26.667969 400.1875 23.148438 406.101563 23.148438 C 409.21875 23.148438 411.476563 23.867188 412.824219 24.636719 L 411.742188 27.839844 C 410.753906 27.300781 408.71875 26.394531 405.964844 26.394531 C 401.8125 26.394531 400.234375 28.878906 400.234375 30.953125 C 400.234375 33.800781 402.085938 35.199219 406.285156 36.824219 C 411.425781 38.808594 414.046875 41.292969 414.046875 45.761719 C 414.046875 50.453125 410.570313 54.515625 403.394531 54.515625 C 400.460938 54.515625 397.253906 53.65625 395.628906 52.574219 "/>
<path style=" stroke:none;fill-rule:nonzero;fill:rgb(54.499817%,58.799744%,60.398865%);fill-opacity:1;" d="M 425.152344 54.0625 L 429.082031 54.0625 L 429.082031 23.644531 L 425.152344 23.644531 Z M 425.152344 54.0625 "/>
<path style=" stroke:none;fill-rule:nonzero;fill:rgb(54.499817%,58.799744%,60.398865%);fill-opacity:1;" d="M 447.449219 26.984375 L 438.199219 26.984375 L 438.199219 23.644531 L 460.722656 23.644531 L 460.722656 26.984375 L 451.421875 26.984375 L 451.421875 54.0625 L 447.449219 54.0625 "/>
<path style=" stroke:none;fill-rule:nonzero;fill:rgb(54.499817%,58.799744%,60.398865%);fill-opacity:1;" d="M 485.59375 39.800781 L 473.773438 39.800781 L 473.773438 50.769531 L 486.949219 50.769531 L 486.949219 54.0625 L 469.84375 54.0625 L 469.84375 23.644531 L 486.273438 23.644531 L 486.273438 26.9375 L 473.773438 26.9375 L 473.773438 36.554688 L 485.59375 36.554688 "/>
<path style=" stroke:none;fill-rule:nonzero;fill:rgb(54.499817%,58.799744%,60.398865%);fill-opacity:1;" d="M 497.785156 54.0625 L 501.714844 54.0625 L 501.714844 23.644531 L 497.785156 23.644531 Z M 497.785156 54.0625 "/>
<path style=" stroke:none;fill-rule:nonzero;fill:rgb(54.499817%,58.799744%,60.398865%);fill-opacity:1;" d="M 520.085938 26.984375 L 510.835938 26.984375 L 510.835938 23.644531 L 533.355469 23.644531 L 533.355469 26.984375 L 524.058594 26.984375 L 524.058594 54.0625 L 520.085938 54.0625 "/>
<path style=" stroke:none;fill-rule:nonzero;fill:rgb(54.499817%,58.799744%,60.398865%);fill-opacity:1;" d="M 202.011719 106.742188 C 203.769531 107.824219 206.347656 108.722656 209.054688 108.722656 C 213.070313 108.722656 215.414063 106.605469 215.414063 103.535156 C 215.414063 100.691406 213.792969 99.066406 209.683594 97.484375 C 204.722656 95.726563 201.652344 93.152344 201.652344 88.863281 C 201.652344 84.125 205.578125 80.605469 211.488281 80.605469 C 214.605469 80.605469 216.859375 81.328125 218.214844 82.097656 L 217.132813 85.300781 C 216.140625 84.757813 214.105469 83.851563 211.355469 83.851563 C 207.203125 83.851563 205.621094 86.339844 205.621094 88.414063 C 205.621094 91.257813 207.472656 92.65625 211.671875 94.28125 C 216.816406 96.269531 219.4375 98.75 219.4375 103.21875 C 219.4375 107.914063 215.957031 111.96875 208.78125 111.96875 C 205.84375 111.96875 202.644531 111.113281 201.015625 110.03125 "/>
<path style=" stroke:none;fill-rule:nonzero;fill:rgb(54.499817%,58.799744%,60.398865%);fill-opacity:1;" d="M 236.320313 84.441406 L 227.066406 84.441406 L 227.066406 81.101563 L 249.589844 81.101563 L 249.589844 84.441406 L 240.289063 84.441406 L 240.289063 111.527344 L 236.320313 111.527344 "/>
<path style=" stroke:none;fill-rule:nonzero;fill:rgb(54.499817%,58.799744%,60.398865%);fill-opacity:1;" d="M 274.460938 97.257813 L 262.640625 97.257813 L 262.640625 108.230469 L 275.816406 108.230469 L 275.816406 111.527344 L 258.714844 111.527344 L 258.714844 81.101563 L 275.140625 81.101563 L 275.140625 84.394531 L 262.640625 84.394531 L 262.640625 94.011719 L 274.460938 94.011719 "/>
<path style=" stroke:none;fill-rule:nonzero;fill:rgb(54.499817%,58.799744%,60.398865%);fill-opacity:1;" d="M 286.652344 81.101563 L 290.582031 81.101563 L 290.582031 108.226563 L 303.582031 108.226563 L 303.582031 111.527344 L 286.652344 111.527344 "/>
<path style=" stroke:none;fill-rule:nonzero;fill:rgb(54.499817%,58.799744%,60.398865%);fill-opacity:1;" d="M 313.695313 81.101563 L 317.621094 81.101563 L 317.621094 108.226563 L 330.617188 108.226563 L 330.617188 111.527344 L 313.695313 111.527344 "/>
<path style=" stroke:none;fill-rule:nonzero;fill:rgb(54.499817%,58.799744%,60.398865%);fill-opacity:1;" d="M 356.484375 97.257813 L 344.660156 97.257813 L 344.660156 108.230469 L 357.839844 108.230469 L 357.839844 111.527344 L 340.734375 111.527344 L 340.734375 81.101563 L 357.160156 81.101563 L 357.160156 84.394531 L 344.660156 84.394531 L 344.660156 94.011719 L 356.484375 94.011719 "/>
<path style=" stroke:none;fill-rule:nonzero;fill:rgb(54.499817%,58.799744%,60.398865%);fill-opacity:1;" d="M 368.675781 111.527344 L 368.675781 81.101563 L 372.960938 81.101563 L 382.714844 96.496094 C 384.96875 100.058594 386.730469 103.257813 388.171875 106.378906 L 388.265625 106.332031 C 387.902344 102.273438 387.8125 98.566406 387.8125 93.828125 L 387.8125 81.101563 L 391.511719 81.101563 L 391.511719 111.527344 L 387.539063 111.527344 L 377.882813 96.085938 C 375.761719 92.699219 373.730469 89.226563 372.195313 85.929688 L 372.0625 85.972656 C 372.285156 89.8125 372.375 93.46875 372.375 98.523438 L 372.375 111.527344 "/>
<path style=" stroke:none;fill-rule:nonzero;fill:rgb(54.499817%,58.799744%,60.398865%);fill-opacity:1;" d="M 408.039063 108.542969 C 408.808594 108.679688 409.9375 108.722656 411.339844 108.722656 C 415.398438 108.722656 419.144531 107.234375 419.144531 102.816406 C 419.144531 98.660156 415.578125 96.941406 411.289063 96.941406 L 408.039063 96.941406 Z M 408.039063 93.964844 L 411.605469 93.964844 C 415.757813 93.964844 418.199219 91.800781 418.199219 88.863281 C 418.199219 85.300781 415.488281 83.902344 411.515625 83.902344 C 409.710938 83.902344 408.671875 84.035156 408.039063 84.171875 Z M 404.113281 81.507813 C 405.828125 81.148438 408.539063 80.875 411.289063 80.875 C 415.214844 80.875 417.746094 81.554688 419.640625 83.085938 C 421.21875 84.261719 422.167969 86.066406 422.167969 88.460938 C 422.167969 91.390625 420.226563 93.964844 417.019531 95.136719 L 417.019531 95.230469 C 419.910156 95.949219 423.296875 98.347656 423.296875 102.855469 C 423.296875 105.472656 422.257813 107.460938 420.722656 108.949219 C 418.601563 110.886719 415.171875 111.792969 410.207031 111.792969 C 407.5 111.792969 405.421875 111.613281 404.113281 111.429688 "/>
<path style=" stroke:none;fill-rule:nonzero;fill:rgb(54.499817%,58.799744%,60.398865%);fill-opacity:1;" d="M 436.703125 96.492188 C 436.703125 102.992188 440.226563 108.808594 446.410156 108.808594 C 452.640625 108.808594 456.15625 103.082031 456.15625 96.175781 C 456.15625 90.128906 452.996094 83.808594 446.453125 83.808594 C 439.957031 83.808594 436.703125 89.8125 436.703125 96.492188 M 460.308594 95.996094 C 460.308594 106.46875 453.949219 112.019531 446.183594 112.019531 C 438.152344 112.019531 432.507813 105.789063 432.507813 96.582031 C 432.507813 86.925781 438.511719 80.605469 446.636719 80.605469 C 454.941406 80.605469 460.308594 86.96875 460.308594 95.996094 "/>
<path style=" stroke:none;fill-rule:nonzero;fill:rgb(54.499817%,58.799744%,60.398865%);fill-opacity:1;" d="M 470.609375 106.742188 C 472.371094 107.824219 474.945313 108.722656 477.648438 108.722656 C 481.667969 108.722656 484.011719 106.605469 484.011719 103.535156 C 484.011719 100.691406 482.390625 99.066406 478.28125 97.484375 C 473.316406 95.726563 470.25 93.152344 470.25 88.863281 C 470.25 84.125 474.175781 80.605469 480.085938 80.605469 C 483.203125 80.605469 485.460938 81.328125 486.8125 82.097656 L 485.730469 85.300781 C 484.738281 84.757813 482.703125 83.851563 479.953125 83.851563 C 475.800781 83.851563 474.21875 86.339844 474.21875 88.414063 C 474.21875 91.257813 476.070313 92.65625 480.269531 94.28125 C 485.410156 96.269531 488.027344 98.75 488.027344 103.21875 C 488.027344 107.914063 484.554688 111.96875 477.378906 111.96875 C 474.445313 111.96875 471.238281 111.113281 469.613281 110.03125 "/>
<path style=" stroke:none;fill-rule:nonzero;fill:rgb(54.499817%,58.799744%,60.398865%);fill-opacity:1;" d="M 520.398438 110.53125 C 518.957031 111.25 516.066406 111.96875 512.363281 111.96875 C 503.789063 111.96875 497.335938 106.554688 497.335938 96.582031 C 497.335938 87.0625 503.789063 80.605469 513.222656 80.605469 C 517.011719 80.605469 519.402344 81.417969 520.441406 81.957031 L 519.496094 85.160156 C 518.007813 84.441406 515.886719 83.902344 513.355469 83.902344 C 506.226563 83.902344 501.488281 88.460938 501.488281 96.445313 C 501.488281 103.898438 505.773438 108.679688 513.179688 108.679688 C 515.570313 108.679688 518.007813 108.179688 519.585938 107.410156 "/>
<g clip-path="url(#clip1)" clip-rule="nonzero">
<path style=" stroke:none;fill-rule:nonzero;fill:rgb(54.499817%,58.799744%,60.398865%);fill-opacity:1;" d="M 534.980469 81.101563 L 534.980469 93.828125 L 549.695313 93.828125 L 549.695313 81.101563 L 553.667969 81.101563 L 553.667969 111.527344 L 549.695313 111.527344 L 549.695313 97.257813 L 534.980469 97.257813 L 534.980469 111.527344 L 531.054688 111.527344 L 531.054688 81.101563 "/>
</g>
<path style=" stroke:none;fill-rule:nonzero;fill:rgb(54.499817%,58.799744%,60.398865%);fill-opacity:1;" d="M 246.589844 138.5625 L 246.589844 156.566406 C 246.589844 163.382813 249.613281 166.273438 253.675781 166.273438 C 258.1875 166.273438 261.078125 163.292969 261.078125 156.566406 L 261.078125 138.5625 L 265.046875 138.5625 L 265.046875 156.296875 C 265.046875 165.640625 260.132813 169.476563 253.539063 169.476563 C 247.3125 169.476563 242.617188 165.914063 242.617188 156.476563 L 242.617188 138.5625 "/>
<path style=" stroke:none;fill-rule:nonzero;fill:rgb(54.499817%,58.799744%,60.398865%);fill-opacity:1;" d="M 277.601563 168.980469 L 277.601563 138.5625 L 281.886719 138.5625 L 291.640625 153.953125 C 293.894531 157.515625 295.65625 160.71875 297.097656 163.835938 L 297.191406 163.789063 C 296.828125 159.730469 296.738281 156.027344 296.738281 151.289063 L 296.738281 138.5625 L 300.4375 138.5625 L 300.4375 168.980469 L 296.46875 168.980469 L 286.808594 153.542969 C 284.6875 150.160156 282.65625 146.679688 281.121094 143.390625 L 280.984375 143.433594 C 281.210938 147.273438 281.300781 150.921875 281.300781 155.980469 L 281.300781 168.980469 "/>
<path style=" stroke:none;fill-rule:nonzero;fill:rgb(54.499817%,58.799744%,60.398865%);fill-opacity:1;" d="M 313.039063 168.980469 L 316.964844 168.980469 L 316.964844 138.5625 L 313.039063 138.5625 Z M 313.039063 168.980469 "/>
<path style=" stroke:none;fill-rule:nonzero;fill:rgb(54.499817%,58.799744%,60.398865%);fill-opacity:1;" d="M 336.246094 168.980469 L 326.3125 138.5625 L 330.558594 138.5625 L 335.296875 153.542969 C 336.605469 157.65625 337.730469 161.355469 338.546875 164.917969 L 338.636719 164.917969 C 339.492188 161.394531 340.757813 157.5625 342.113281 153.589844 L 347.253906 138.5625 L 351.453125 138.5625 L 340.578125 168.980469 "/>
<path style=" stroke:none;fill-rule:nonzero;fill:rgb(54.499817%,58.799744%,60.398865%);fill-opacity:1;" d="M 376.238281 154.71875 L 364.414063 154.71875 L 364.414063 165.6875 L 377.59375 165.6875 L 377.59375 168.984375 L 360.484375 168.984375 L 360.484375 138.5625 L 376.917969 138.5625 L 376.917969 141.855469 L 364.414063 141.855469 L 364.414063 151.46875 L 376.238281 151.46875 "/>
<path style=" stroke:none;fill-rule:nonzero;fill:rgb(54.499817%,58.799744%,60.398865%);fill-opacity:1;" d="M 392.351563 152.824219 L 396.367188 152.824219 C 400.566406 152.824219 403.230469 150.519531 403.230469 147.046875 C 403.230469 143.117188 400.390625 141.40625 396.234375 141.355469 C 394.339844 141.355469 392.984375 141.539063 392.351563 141.71875 Z M 388.425781 138.964844 C 390.414063 138.5625 393.253906 138.335938 395.964844 138.335938 C 400.164063 138.335938 402.871094 139.101563 404.765625 140.816406 C 406.300781 142.171875 407.15625 144.25 407.15625 146.59375 C 407.15625 150.609375 404.628906 153.273438 401.425781 154.355469 L 401.425781 154.496094 C 403.769531 155.300781 405.171875 157.46875 405.894531 160.628906 C 406.886719 164.875 407.609375 167.804688 408.242188 168.980469 L 404.179688 168.980469 C 403.679688 168.121094 403.007813 165.507813 402.144531 161.714844 C 401.246094 157.515625 399.621094 155.9375 396.054688 155.804688 L 392.351563 155.804688 L 392.351563 168.980469 L 388.425781 168.980469 "/>
<path style=" stroke:none;fill-rule:nonzero;fill:rgb(54.499817%,58.799744%,60.398865%);fill-opacity:1;" d="M 417.90625 164.199219 C 419.667969 165.28125 422.242188 166.183594 424.949219 166.183594 C 428.964844 166.183594 431.3125 164.0625 431.3125 160.992188 C 431.3125 158.148438 429.6875 156.523438 425.578125 154.945313 C 420.613281 153.1875 417.546875 150.609375 417.546875 146.324219 C 417.546875 141.582031 421.472656 138.0625 427.386719 138.0625 C 430.5 138.0625 432.757813 138.785156 434.109375 139.554688 L 433.027344 142.753906 C 432.035156 142.214844 430.003906 141.3125 427.253906 141.3125 C 423.097656 141.3125 421.519531 143.796875 421.519531 145.875 C 421.519531 148.71875 423.367188 150.113281 427.566406 151.738281 C 432.710938 153.726563 435.328125 156.207031 435.328125 160.675781 C 435.328125 165.371094 431.851563 169.429688 424.679688 169.429688 C 421.746094 169.429688 418.535156 168.574219 416.914063 167.492188 "/>
<path style=" stroke:none;fill-rule:nonzero;fill:rgb(54.499817%,58.799744%,60.398865%);fill-opacity:1;" d="M 446.4375 168.980469 L 450.363281 168.980469 L 450.363281 138.5625 L 446.4375 138.5625 Z M 446.4375 168.980469 "/>
<path style=" stroke:none;fill-rule:nonzero;fill:rgb(54.499817%,58.799744%,60.398865%);fill-opacity:1;" d="M 468.734375 141.898438 L 459.480469 141.898438 L 459.480469 138.5625 L 482.003906 138.5625 L 482.003906 141.898438 L 472.707031 141.898438 L 472.707031 168.980469 L 468.734375 168.980469 "/>
<path style=" stroke:none;fill-rule:nonzero;fill:rgb(54.499817%,58.799744%,60.398865%);fill-opacity:1;" d="M 497.898438 168.980469 L 497.898438 156.070313 L 488.285156 138.5625 L 492.753906 138.5625 L 497.042969 146.957031 C 498.214844 149.257813 499.113281 151.109375 500.0625 153.226563 L 500.152344 153.226563 C 501.015625 151.242188 502.050781 149.257813 503.222656 146.957031 L 507.601563 138.5625 L 512.070313 138.5625 L 501.871094 156.027344 L 501.871094 168.980469 "/>
</g>
</svg>
